<svg id="visual" viewBox="0 0 675 900" width="675" height="900" xmlns="http://www.w3.org/2000/svg" xmlns:xlink="http://www.w3.org/1999/xlink" version="1.1"><path d="M456 900L455 870C454 840 452 780 436 720C420 660 390 600 385.8 540C381.7 480 403.3 420 412.7 360C422 300 419 240 422 180C425 120 434 60 438.5 30L443 0L675 0L675 30C675 60 675 120 675 180C675 240 675 300 675 360C675 420 675 480 675 540C675 600 675 660 675 720C675 780 675 840 675 870L675 900Z" fill="#ff0066"></path><path d="M434 900L441.5 870C449 840 464 780 471.2 720C478.3 660 477.7 600 463.2 540C448.7 480 420.3 420 412.7 360C405 300 418 240 432.5 180C447 120 463 60 471 30L479 0L675 0L675 30C675 60 675 120 675 180C675 240 675 300 675 360C675 420 675 480 675 540C675 600 675 660 675 720C675 780 675 840 675 870L675 900Z" fill="#e4006b"></path><path d="M439 900L448.8 870C458.7 840 478.3 780 475 720C471.7 660 445.3 600 437.8 540C430.3 480 441.7 420 445.7 360C449.7 300 446.3 240 442.7 180C439 120 435 60 433 30L431 0L675 0L675 30C675 60 675 120 675 180C675 240 675 300 675 360C675 420 675 480 675 540C675 600 675 660 675 720C675 780 675 840 675 870L675 900Z" fill="#c8006d"></path><path d="M452 900L453.7 870C455.3 840 458.7 780 459.8 720C461 660 460 600 458.5 540C457 480 455 420 463.8 360C472.7 300 492.3 240 502 180C511.7 120 511.3 60 511.2 30L511 0L675 0L675 30C675 60 675 120 675 180C675 240 675 300 675 360C675 420 675 480 675 540C675 600 675 660 675 720C675 780 675 840 675 870L675 900Z" fill="#aa006c"></path><path d="M526 900L521.7 870C517.3 840 508.7 780 507.5 720C506.3 660 512.7 600 511.2 540C509.7 480 500.3 420 500.3 360C500.3 300 509.7 240 509.8 180C510 120 501 60 496.5 30L492 0L675 0L675 30C675 60 675 120 675 180C675 240 675 300 675 360C675 420 675 480 675 540C675 600 675 660 675 720C675 780 675 840 675 870L675 900Z" fill="#8d0068"></path><path d="M526 900L529.5 870C533 840 540 780 539.5 720C539 660 531 600 533.7 540C536.3 480 549.7 420 549.5 360C549.3 300 535.7 240 529.5 180C523.3 120 524.7 60 525.3 30L526 0L675 0L675 30C675 60 675 120 675 180C675 240 675 300 675 360C675 420 675 480 675 540C675 600 675 660 675 720C675 780 675 840 675 870L675 900Z" fill="#700761"></path><path d="M579 900L574.8 870C570.7 840 562.3 780 557.7 720C553 660 552 600 554.2 540C556.3 480 561.7 420 562.2 360C562.7 300 558.3 240 557.5 180C556.7 120 559.3 60 560.7 30L562 0L675 0L675 30C675 60 675 120 675 180C675 240 675 300 675 360C675 420 675 480 675 540C675 600 675 660 675 720C675 780 675 840 675 870L675 900Z" fill="#540b58"></path><path d="M585 900L586 870C587 840 589 780 589.8 720C590.7 660 590.3 600 589.2 540C588 480 586 420 587 360C588 300 592 240 594.5 180C597 120 598 60 598.5 30L599 0L675 0L675 30C675 60 675 120 675 180C675 240 675 300 675 360C675 420 675 480 675 540C675 600 675 660 675 720C675 780 675 840 675 870L675 900Z" fill="#390b4c"></path><path d="M618 900L619 870C620 840 622 780 622.8 720C623.7 660 623.3 600 622.5 540C621.7 480 620.3 420 619.8 360C619.3 300 619.7 240 619.3 180C619 120 618 60 617.5 30L617 0L675 0L675 30C675 60 675 120 675 180C675 240 675 300 675 360C675 420 675 480 675 540C675 600 675 660 675 720C675 780 675 840 675 870L675 900Z" fill="#1f093e"></path></svg>